<?xml version="1.0" encoding="utf-8"?>
<!-- Generator: Adobe Illustrator 24.0.0, SVG Export Plug-In . SVG Version: 6.00 Build 0)  -->
<svg version="1.1" id="Layer_1" xmlns="http://www.w3.org/2000/svg" xmlns:xlink="http://www.w3.org/1999/xlink" x="0px" y="0px"
	 viewBox="0 0 56.7 56.7" style="enable-background:new 0 0 56.7 56.7;" xml:space="preserve">
<style type="text/css">
	.st0{fill-rule:evenodd;clip-rule:evenodd;fill:#E8E8E8;}
</style>
<path class="st0" d="M52.4,24.2c-0.3-1.6-0.8-3.2-1.4-4.6c-0.6-1.5-1.4-2.9-2.3-4.2c-0.9-1.3-1.9-2.5-3-3.7c-1.1-1.1-2.3-2.1-3.7-3
	c-1.3-0.9-2.7-1.7-4.2-2.3c-1.5-0.6-3.1-1.1-4.6-1.4c-1.6-0.3-3.3-0.5-5-0.5c-1.7,0-3.4,0.2-5,0.5c-1.6,0.3-3.2,0.8-4.6,1.4
	c-1.5,0.6-2.9,1.4-4.2,2.3c-1.3,0.9-2.5,1.9-3.7,3c-1.1,1.1-2.1,2.3-3,3.7c-0.9,1.3-1.7,2.7-2.3,4.2C4.8,21,4.3,22.6,4,24.2
	c-0.3,1.6-0.5,3.3-0.5,5c0,1.7,0.2,3.4,0.5,5c0.3,1.6,0.8,3.2,1.4,4.6c0.6,1.5,1.4,2.9,2.3,4.2c0.9,1.3,1.9,2.5,3,3.7
	c1.1,1.1,2.3,2.1,3.7,3c1.3,0.9,2.7,1.7,4.2,2.3c1.5,0.6,3.1,1.1,4.6,1.4c1.6,0.3,3.3,0.5,5,0.5c1.7,0,3.4-0.2,5-0.5
	c1.6-0.3,3.2-0.8,4.6-1.4c1.5-0.6,2.9-1.4,4.2-2.3c1.3-0.9,2.5-1.9,3.7-3c1.1-1.1,2.1-2.3,3-3.7c0.9-1.3,1.7-2.7,2.3-4.2
	c0.6-1.5,1.1-3.1,1.4-4.6c0.3-1.6,0.5-3.3,0.5-5C52.9,27.5,52.8,25.8,52.4,24.2z M49.3,28.9c-0.3-0.1-7.4-1.6-14.7-0.7
	c-0.1-0.4-0.3-0.7-0.5-1.1c-0.4-1-0.9-2.1-1.4-3.1c8.3-3.4,11.7-8.3,11.8-8.4C47.5,19.3,49.3,23.9,49.3,28.9z M42.2,13.3
	c-0.1,0.1-3.1,4.7-11,7.6C27.5,14.3,23.6,9,23.2,8.6c1.6-0.4,3.3-0.6,5-0.6C33.6,8,38.4,10,42.2,13.3z M23.2,8.6
	C23.2,8.6,23.2,8.6,23.2,8.6C23.2,8.6,23.1,8.6,23.2,8.6C23.1,8.6,23.1,8.6,23.2,8.6z M19.2,10c0.3,0.4,4.2,5.7,7.8,12.2
	c-10.1,2.7-18.9,2.6-19.5,2.6C8.9,18.2,13.3,12.8,19.2,10z M7.1,29.1c0-0.2,0-0.4,0-0.7c0.4,0,10.8,0.2,21.7-3
	c0.6,1.2,1.2,2.4,1.7,3.6c-0.3,0.1-0.6,0.2-0.8,0.3C18.3,33,12.5,43.2,12.5,43.2s0,0,0,0C9.1,39.5,7.1,34.6,7.1,29.1z M28.2,50.2
	c-5.1,0-9.8-1.8-13.4-4.8c0.3,0.2,0.5,0.4,0.5,0.4s4-8.8,16.6-13.2c0,0,0.1,0,0.1,0c3,7.7,4.2,14.2,4.5,16
	C33.9,49.6,31.1,50.2,28.2,50.2z M40,46.6c-0.2-1.3-1.3-7.5-4.1-15.1c6.8-1.1,12.7,0.8,13.2,0.9C48.1,38.4,44.8,43.4,40,46.6z"/>
</svg>
