<?xml version="1.0" encoding="utf-8"?>
<!-- Generator: Adobe Illustrator 24.0.0, SVG Export Plug-In . SVG Version: 6.00 Build 0)  -->
<svg version="1.1" id="Layer_1" xmlns:serif="http://www.serif.com/"
	 xmlns="http://www.w3.org/2000/svg" xmlns:xlink="http://www.w3.org/1999/xlink" x="0px" y="0px" viewBox="0 0 900 900"
	 style="enable-background:new 0 0 900 900;" xml:space="preserve">
<style type="text/css">
	.st0{fill-rule:evenodd;clip-rule:evenodd;fill:#E8E8E8;}
</style>
<path class="st0" d="M790,0c60.7,0,110,49.3,110,110V790c0,60.7-49.3,110-110,110H110C49.3,900,0,850.7,0,790V110
	C0,49.3,49.3,0,110,0L790,0L790,0z M282.1,744V347.3H150.2V744H282.1z M757.6,744V516.5c0-121.9-65.1-178.6-151.8-178.6
	c-70,0-101.3,38.5-118.9,65.5v-56.2H355c1.7,37.2,0,396.8,0,396.8h131.9V522.5c0-11.9,0.9-23.7,4.3-32.2
	c9.5-23.7,31.2-48.2,67.7-48.2c47.7,0,66.8,36.4,66.8,89.7V744H757.6L757.6,744z M217,156c-45.1,0-74.6,29.7-74.6,68.6
	c0,38.1,28.6,68.6,72.9,68.6h0.9c46,0,74.6-30.5,74.6-68.6C289.9,185.7,262.2,156,217,156L217,156z"/>
</svg>
